<?xml version="1.0" encoding="UTF-8"?>
<svg id="Layer_2" data-name="Layer 2" xmlns="http://www.w3.org/2000/svg" viewBox="0 0 627.52 281.07">
  <defs>
    <style>
      .cls-1 {
        fill: #d8df50;
      }

      .cls-1, .cls-2 {
        stroke-width: 0px;
      }

      .cls-2 {
        fill: #014a3d;
      }
    </style>
  </defs>
  <g id="Layer_1-2" data-name="Layer 1">
    <g>
      <g>
        <path class="cls-2" d="m247.72,207.94c-.8,1.16-2.62,2.19-5.47,3.1-6.22,1.62-12.27,1.25-18.14-1.08-1.25-.72-2.18-1.53-2.81-2.42-.62-.9-.93-2.15-.93-3.77-.36-14-.72-28.05-1.08-42.15-.36-14.09-.72-28.15-1.08-42.15-.18-5.74-.13-11.49.13-17.24.27-5.74.4-11.49.4-17.24-.54,0-.99-.09-1.35-.27-.36.9-.67,1.71-.94,2.42-.27.72-.58,1.53-.94,2.42-2.87,8.26-5.66,16.52-8.35,24.78-2.69,8.26-5.48,16.52-8.35,24.78-.72,2.16-1.75,4-3.1,5.52-1.35,1.53-3.19,2.47-5.52,2.83-5.39.54-10.69.54-15.89,0-3.77-.54-6.37-3.05-7.81-7.54-3.41-11.31-6.87-22.49-10.37-33.53-3.5-11.04-7.05-22.13-10.64-33.26,0-.36-.09-.72-.27-1.08-.18-.36-.45-.98-.81-1.89-.18.9-.27,1.62-.27,2.16l-4.04,129.29c0,.89.04,1.75.14,2.56.09.81.31,1.66.67,2.56.89,2.51.09,4.58-2.42,6.2-1.44.89-3.23,1.57-5.39,2.02-2.16.45-4.4.63-6.74.54-2.33-.09-4.53-.36-6.6-.81-2.06-.45-3.73-1.21-4.98-2.29-1.44-.9-2.34-2.25-2.69-4.04-.36-1.08-.54-2.2-.54-3.37v-3.36c.36-15.08.76-30.03,1.21-44.85.45-14.81.94-29.76,1.48-44.85.36-13.64.85-27.29,1.48-40.94.62-13.64,1.21-27.29,1.75-40.94.18-2.51.31-5.03.4-7.54.09-2.51.31-5.21.68-8.08-1.62.72-3.15,1.31-4.58,1.75-1.44.45-2.87.94-4.31,1.48-6.29,2.88-11.99,6.42-17.11,10.64-5.12,4.22-9.21,9.48-12.26,15.76-.9,1.8-1.53,3.68-1.89,5.66-.36,1.98-.72,3.95-1.08,5.93-.36,2.69-1.44,4.4-3.23,5.12-7.72,3.41-15.17,3.23-22.35-.54-3.59-1.97-4.4-6.01-2.42-12.12,1.61-5.39,3.99-10.23,7.14-14.54,3.14-4.31,6.78-8.26,10.91-11.85C81.57,9.65,97.73,2.56,115.87.4c3.77-.54,7.58-.54,11.45,0,3.86.54,7.59,1.17,11.18,1.89,3.05.54,5.7,1.79,7.95,3.77,2.24,1.98,3.99,4.4,5.25,7.27,5.2,11.85,10.05,24.15,14.55,36.9,2.87,7.72,5.56,15.49,8.08,23.3,2.51,7.81,5.12,15.67,7.81,23.57.36.72.63,1.44.81,2.16.54-1.62,1.03-3.05,1.48-4.31.45-1.25.94-2.51,1.48-3.77,3.95-10.05,7.9-19.97,11.85-29.76,3.95-9.78,7.9-19.62,11.85-29.49,1.08-2.51,2.06-5.12,2.96-7.81.89-2.69,1.79-5.3,2.69-7.81,1.43-5.2,5-8.26,10.7-9.16,2.85-.36,5.6-.45,8.27-.27,2.67.18,5.24.9,7.73,2.16,3.38,1.44,4.98,3.95,4.8,7.54-.18,10.06-.32,20.07-.4,30.03-.09,9.97-.14,19.98-.14,30.03v29.49c0,9.79.09,19.62.27,29.49.18,7.72.36,15.4.54,23.03.18,7.64.45,15.31.81,23.03l.81,20.2c.18,2.87-.14,4.89-.94,6.06Z"/>
        <path class="cls-2" d="m265.68,86.6c-3.8-1.44-5.62-4.04-5.44-7.81.18-3.23.31-6.42.4-9.56.09-3.14.14-6.24.14-9.29s1.45-5.12,4.35-6.2c6.89-2.51,13.59-2.6,20.12-.27,3.26,1.44,4.89,3.95,4.89,7.54-.18,1.62-.27,3.23-.27,4.85s-.09,3.23-.27,4.85h-.28c0,1.44-.05,2.92-.13,4.44-.09,1.53-.05,3.01.13,4.44.36,1.98.09,3.46-.81,4.45-.91.99-2.08,1.75-3.53,2.29-6.35,2.33-12.78,2.42-19.3.27Zm25.27,22.36c-.18,7.18-.27,14.37-.27,21.55v64.37c0,2.51-.32,4.4-.95,5.66-.64,1.26-2.22,2.06-4.76,2.42-2.54.54-5.12.94-7.75,1.21-2.63.27-5.21.22-7.75-.14-3.26-.36-5.39-1.26-6.39-2.69-1-1.44-1.49-3.77-1.49-7.01v-63.57c0-3.41.04-6.78.14-10.1.09-3.32.04-6.69-.14-10.1,0-4.49,1.99-7.27,5.98-8.35,6.71-1.97,12.96-1.97,18.76,0,3.08,1.08,4.62,3.33,4.62,6.74Z"/>
        <path class="cls-2" d="m397.06,183.56c2.16-5.74,3.81-11.67,4.98-17.78,1.17-6.1,1.93-12.3,2.29-18.58.89-8.62,1.52-17.06,1.89-25.32.36-8.26.72-16.7,1.08-25.32.18-4.49.09-8.98-.27-13.46-.36-4.49-.72-8.98-1.08-13.47-.18-2.69.09-4.71.81-6.06.72-1.35,2.33-2.19,4.85-2.56,2.52-.54,4.99-.85,7.41-.94,2.42-.09,4.89.05,7.41.41,3.05.36,5.12,1.21,6.2,2.56,1.08,1.35,1.79,3.55,2.15,6.6,1.44,9.88,1.93,19.66,1.48,29.36-.45,9.7-.94,19.39-1.48,29.09-.36,8.8-1.08,17.55-2.15,26.26-1.08,8.71-2.88,17.37-5.39,25.99-1.79,6.64-4.4,13.37-7.81,20.2-1.98,4.13-4.99,7.23-9.02,9.29-4.04,2.06-8.26,3.14-12.66,3.23-4.4.09-8.67-.67-12.79-2.29-4.13-1.62-7.27-4.04-9.43-7.27-2.52-3.41-4.45-6.96-5.79-10.64-1.35-3.68-2.56-7.41-3.63-11.18-.36-1.43-.68-2.83-.94-4.17-.27-1.35-.68-3-1.21-4.98-1.26,2.69-2.34,5.17-3.23,7.41-.9,2.25-1.98,4.44-3.23,6.6-3.41,6.46-8.04,10.99-13.87,13.6-5.84,2.6-12.26,3.1-19.26,1.48-7.72-1.8-12.84-5.84-15.35-12.12-1.26-3.23-2.38-6.51-3.37-9.83-.99-3.32-1.66-6.69-2.02-10.1-1.08-9.16-1.75-18.36-2.02-27.61-.27-9.25.04-18.45.94-27.61.54-7.36,1.08-14.59,1.61-21.68.54-7.09,1.17-14.32,1.89-21.68.36-3.59,1.26-6.1,2.7-7.54,1.43-1.43,3.95-2.33,7.54-2.69,2.51-.36,4.98-.36,7.41,0,2.42.36,4.89.81,7.41,1.35,3.23.54,4.58,2.96,4.04,7.27-1.8,12.57-3.1,25.1-3.9,37.57-.81,12.48-1.04,25.1-.68,37.85.18,4.49.45,8.93.81,13.33.36,4.4.72,8.85,1.08,13.33.9,0,1.52.09,1.89.27.54-2.15,1.12-4.22,1.75-6.19.63-1.97,1.12-4.04,1.48-6.2,1.79-10.77,3.54-21.46,5.25-32.05,1.71-10.59,3.46-21.28,5.25-32.05.36-2.16.76-4.35,1.21-6.6.45-2.24.85-4.44,1.21-6.6.72-4.31,3.41-6.91,8.08-7.81,3.23-.54,6.64-.81,10.23-.81,4.67.36,7.99,1.39,9.97,3.1,1.97,1.71,3.23,4.89,3.77,9.56,1.26,10.77,2.42,21.55,3.5,32.32,1.08,10.77,2.33,21.55,3.77,32.32.9,5.57,1.79,11.04,2.69,16.43.9,5.39,1.79,10.87,2.69,16.43h1.89Z"/>
        <path class="cls-2" d="m476.52,150.16c-.18,8.62.04,16.97.67,25.05.63,8.08,3.27,15.98,7.95,23.7.54-1.44,1.16-2.92,1.89-4.44.72-1.53,1.16-3.1,1.35-4.71.54-3.05.9-6.01,1.08-8.89.18-2.87.27-5.84.27-8.89,0-3.41,1.35-5.56,4.04-6.46,6.47-2.51,13.02-2.51,19.66,0,3.95,1.44,5.74,4.13,5.38,8.08-.36,3.59-.72,7.27-1.08,11.05-.36,3.77-1.08,7.45-2.16,11.04-5.03,16.88-17.15,24.15-36.36,21.82-13.65-1.62-22.63-9.07-26.93-22.36-1.8-5.2-2.96-10.46-3.5-15.76-.54-5.3-.99-10.64-1.35-16.03-.36-9.87-.05-19.66.94-29.36.98-9.7,3-19.3,6.06-28.82,1.08-3.77,2.51-7.45,4.31-11.04,1.79-3.59,3.68-7.09,5.66-10.51,4.31-6.46,9.56-10.55,15.75-12.26,6.2-1.7,12.89-1.84,20.07-.4,7.18,1.26,13.02,4.04,17.51,8.35,4.49,4.31,7.72,9.96,9.7,16.97,2.33,7.9,2.06,16.25-.81,25.05-2.69,8.62-7.05,15.18-13.06,19.66-6.02,4.49-13.33,7.27-21.95,8.35-2.33.36-4.71.54-7.14.54s-5.07.09-7.94.27Zm16.16-63.57c-5.57,7.72-9.25,15.62-11.05,23.7-1.79,8.08-3.23,16.34-4.31,24.78,2.69,1.44,5.16,1.84,7.41,1.21,2.24-.63,4.08-1.93,5.52-3.91,1.62-1.97,3.1-4.04,4.44-6.19,1.35-2.16,2.47-4.49,3.36-7.01,1.98-5.56,2.6-11.04,1.89-16.43-.72-5.39-3.14-10.77-7.27-16.16Z"/>
      </g>
      <g>
        <g>
          <path class="cls-1" d="m40.54,194.25c18.4-4.12,36.72.72,50.36,11.66-7.67,15.71-22.16,27.91-40.57,32.04-18.38,4.12-36.7-.72-50.34-11.66,7.67-15.71,22.16-27.91,40.54-32.03Z"/>
          <path class="cls-1" d="m98.1,261.72c-6.14,10.78-16.61,17.55-27.98,19.34-4.25-10.69-3.77-23.15,2.38-33.93,6.14-10.77,16.61-17.54,27.97-19.33,4.25,10.69,3.77,23.15-2.37,33.92Z"/>
        </g>
        <g>
          <path class="cls-1" d="m597.09,79.52c-16.62,8.92-35.56,9.19-51.64,2.32,3.15-17.2,13.84-32.85,30.45-41.77,16.59-8.91,35.54-9.18,51.62-2.31-3.15,17.2-13.84,32.85-30.43,41.76Z"/>
          <path class="cls-1" d="m523.5,30.01c3.02-12.04,11.28-21.37,21.74-26.16,6.97,9.15,9.86,21.28,6.84,33.32-3.01,12.02-11.27,21.36-21.74,26.14-6.97-9.15-9.86-21.28-6.84-33.3Z"/>
        </g>
      </g>
    </g>
  </g>
</svg>